<svg xmlns="http://www.w3.org/2000/svg" xmlns:xlink="http://www.w3.org/1999/xlink" width="25" height="25" viewBox="0 0 25 25"><defs><clipPath id="a"><rect width="25" height="25" transform="translate(0 0)" fill="#fff"/></clipPath></defs><g clip-path="url(#a)"><path d="M18.976,0H6.792A6.772,6.772,0,0,0,0,6.712V18.224a6.773,6.773,0,0,0,6.792,6.713H18.976a6.773,6.773,0,0,0,6.792-6.713V6.712A6.772,6.772,0,0,0,18.976,0m4.486,18.057a4.689,4.689,0,0,1-4.7,4.647H7.009a4.688,4.688,0,0,1-4.7-4.647V6.879a4.688,4.688,0,0,1,4.7-4.647H18.76a4.689,4.689,0,0,1,4.7,4.647Z" transform="translate(-0.367 0.214)" fill="#fff"/><path d="M14.929,8.272a6.4,6.4,0,1,0,6.479,6.4,6.441,6.441,0,0,0-6.479-6.4m0,10.534a4.131,4.131,0,1,1,4.18-4.131,4.156,4.156,0,0,1-4.18,4.131" transform="translate(-2.413 -1.992)" fill="#fff"/><path d="M27,7.278a1.463,1.463,0,1,1-1.463-1.446A1.454,1.454,0,0,1,27,7.278" transform="translate(-6.196 -1.341)" fill="#fff"/></g></svg>