<svg xmlns="http://www.w3.org/2000/svg" width="116" height="174" viewBox="0 0 116 174"><path d="M19.149,161.5h2.459V174H19.149ZM38.119,174h-5.27V161.5h5.059c2.459,0,3.892,1.37,3.892,3.513a2.892,2.892,0,0,1-1.558,2.582,2.9,2.9,0,0,1,1.733,2.809c0,2.336-1.608,3.6-3.856,3.6m-.407-10.327h-2.4v2.881h2.4a1.425,1.425,0,0,0,1.628-1.441c0-.86-.584-1.44-1.628-1.44m.159,5.075H35.307v3.073h2.564a1.54,1.54,0,1,0,0-3.073M53.214,161.5h2.459V174H53.214Zm13.7,12.5v-1.967l5.377-8.359H67.143V161.5H75.19v1.932l-5.4,8.394h5.4V174Zm28.061,0-.742-2.213H89.756L89,174H86.432l4.58-12.5H92.94l4.6,12.5Zm-2.936-8.816-1.592,4.549h3.129ZM58.34,60.62A21.978,21.978,0,1,1,80.473,38.642,22.056,22.056,0,0,1,58.34,60.62M58.34,0A38.644,38.644,0,1,0,97.256,38.642,38.78,38.78,0,0,0,58.34,0M36.207,147.442h0a22.134,22.134,0,0,1,44.266,0H97.256a38.917,38.917,0,0,0-77.832,0H36.207ZM0,84.809H5.455a6.128,6.128,0,0,1,3.726.98,3.987,3.987,0,0,1-.427,6.688,3.962,3.962,0,0,1,2.9,3.968,4.422,4.422,0,0,1-1.8,3.7c-1.325,1-2.38,1.159-4.737,1.159H0Zm3.345,6.6H5.208a3.866,3.866,0,0,0,1.437-.224,1.677,1.677,0,0,0,.943-1.65,1.6,1.6,0,0,0-.92-1.56,3.53,3.53,0,0,0-1.482-.244H3.345Zm0,6.975H5.7a4.023,4.023,0,0,0,1.549-.244,1.884,1.884,0,0,0,1.189-1.894,1.858,1.858,0,0,0-1.167-1.829,4.3,4.3,0,0,0-1.684-.222H3.345ZM26.9,84.809h9.316v2.921H30.248v3.743h5.859v2.921H30.248v3.99h5.972v2.92H26.9ZM53.851,101.3H50.213l6.735-16.495h2.94L66.467,101.3H62.808L61.6,98.071H55.04Zm4.422-12.572L55.916,95.42H60.7Zm33.511,7.045a8.339,8.339,0,0,1-8.127,5.839,8.561,8.561,0,1,1-.023-17.12,8.456,8.456,0,0,1,8.149,5.931H88.259a5.166,5.166,0,0,0-4.647-3.01A5.65,5.65,0,0,0,83.634,98.7a5.238,5.238,0,0,0,4.625-2.921Zm11.128,5.527V84.809h3.345v6.619h6.4V84.809H116V101.3h-3.345V94.348h-6.4V101.3Z" fill="#fff"/></svg>