<svg xmlns="http://www.w3.org/2000/svg" width="60" height="90" viewBox="0 0 60 90"><path d="M9.9,83.532h1.272V90H9.9ZM19.717,90H16.991V83.532h2.617a1.774,1.774,0,0,1,2.013,1.817,1.5,1.5,0,0,1-.806,1.335,1.5,1.5,0,0,1,.9,1.453A1.8,1.8,0,0,1,19.717,90m-.21-5.341H18.262v1.49h1.244a.737.737,0,0,0,.842-.745c0-.445-.3-.745-.842-.745m.082,2.625H18.262v1.59h1.326a.8.8,0,1,0,0-1.59m7.936-3.752H28.8V90H27.525ZM34.61,90V88.982l2.781-4.324H34.729V83.532h4.162v1L36.1,88.873h2.791V90Zm14.514,0-.384-1.145H46.426L46.032,90H44.706l2.369-6.468h1L50.451,90Zm-1.519-4.56-.823,2.353H48.4ZM30.176,31.355A11.368,11.368,0,1,1,41.624,19.987,11.408,11.408,0,0,1,30.176,31.355M30.176,0A19.988,19.988,0,1,0,50.3,19.987,20.059,20.059,0,0,0,30.176,0M18.728,76.263h0a11.448,11.448,0,0,1,22.9,0H50.3a20.129,20.129,0,0,0-40.258,0h8.681ZM0,43.867H2.822a3.17,3.17,0,0,1,1.927.507,2.062,2.062,0,0,1-.221,3.459,2.049,2.049,0,0,1,1.5,2.052A2.287,2.287,0,0,1,5.1,51.8a3.434,3.434,0,0,1-2.45.6H0ZM1.73,47.28h.964a2,2,0,0,0,.743-.116.867.867,0,0,0,.488-.853.83.83,0,0,0-.476-.807,1.826,1.826,0,0,0-.767-.126H1.73Zm0,3.608H2.949a2.081,2.081,0,0,0,.8-.126.974.974,0,0,0,.615-.98.961.961,0,0,0-.6-.946,2.222,2.222,0,0,0-.871-.115H1.73Zm12.185-7.021h4.819v1.511H15.645v1.936h3.031v1.511H15.645v2.064h3.089V52.4H13.915ZM27.854,52.4H25.972l3.484-8.532h1.521l3.4,8.532H32.487l-.627-1.672H28.469Zm2.287-6.5-1.219,3.46H31.4Zm17.333,3.644a4.313,4.313,0,0,1-4.2,3.02,4.428,4.428,0,1,1-.012-8.855,4.374,4.374,0,0,1,4.215,3.068H45.651a2.672,2.672,0,0,0-2.4-1.557,2.922,2.922,0,0,0,.012,5.835,2.709,2.709,0,0,0,2.392-1.511ZM53.23,52.4V43.867h1.73V47.29H58.27V43.867H60V52.4H58.27V48.8H54.961v3.6Z" fill="#fff"/></svg>