<svg xmlns="http://www.w3.org/2000/svg" xmlns:xlink="http://www.w3.org/1999/xlink" width="20" height="25" viewBox="0 0 20 25"><defs><clipPath id="a"><rect width="20" height="25" fill="#fff"/></clipPath></defs><g transform="translate(0)" clip-path="url(#a)"><path d="M10.607,0C3.5,0,0,4.892,0,8.97c0,2.47.89,4.667,2.98,5.487a.519.519,0,0,0,.749-.36c.069-.253.233-.889.306-1.153.1-.36.062-.486-.216-.8a4.042,4.042,0,0,1-.986-2.815C2.832,5.7,5.659,2.45,10.2,2.45c4.017,0,6.223,2.356,6.223,5.5,0,4.141-1.907,7.879-4.741,7.879a2.441,2.441,0,0,1-2.362-3.011c.451-1.82,1.521-3.783,1.521-5.1,0-1.175-.735-1.893-2.216-1.893C6.776,5.833,5.8,7.159,5.8,9.288a6,6,0,0,0,.416,2.272S4.434,18.194,4.29,19.386a28.527,28.527,0,0,0-.046,5.457.2.2,0,0,0,.356.081,15.2,15.2,0,0,0,2.7-4.7c.183-.639,1.051-3.947,1.051-3.947a4.517,4.517,0,0,0,3.654,2.055C16.813,18.333,20,13.858,20,8.226,20,3.966,16.318,0,10.607,0" transform="translate(0 0)" fill="#fff"/></g></svg>