<svg xmlns="http://www.w3.org/2000/svg" xmlns:xlink="http://www.w3.org/1999/xlink" width="38" height="16" viewBox="0 0 38 16"><defs><clipPath id="a"><rect width="38" height="16" fill="#fff"/></clipPath></defs><g transform="translate(0)" clip-path="url(#a)"><path d="M1.834,15.144A.156.156,0,0,0,1.991,15l.428-3.236L1.994,8.451a.163.163,0,0,0-.16-.148.166.166,0,0,0-.159.148L1.3,11.76,1.676,15a.163.163,0,0,0,.159.148M.429,13.918a.155.155,0,0,0,.15-.145L.91,11.76.579,9.714a.154.154,0,0,0-.15-.143.154.154,0,0,0-.152.145L0,11.76l.277,2.014a.155.155,0,0,0,.152.145M3.517,7.835a.191.191,0,0,0-.381,0l-.355,3.926.355,3.784a.191.191,0,0,0,.381,0l.4-3.785Zm1.315,8.042a.227.227,0,0,0,.223-.213l.38-3.9-.38-4.034a.224.224,0,0,0-.447,0l-.335,4.034.335,3.9a.227.227,0,0,0,.224.213m1.516.061a.259.259,0,0,0,.257-.241l.357-3.937L6.605,8.019a.259.259,0,0,0-.257-.243.255.255,0,0,0-.253.243l-.318,3.742L6.095,15.7a.254.254,0,0,0,.253.241m2.158-4.176L8.168,5.675a.288.288,0,0,0-.576,0l-.3,6.088.3,3.937a.288.288,0,0,0,.576,0v0Zm.914,4.216a.321.321,0,0,0,.32-.307v0l.313-3.912L9.741,4.281a.32.32,0,0,0-.32-.3.316.316,0,0,0-.318.3l-.279,7.482.279,3.91a.317.317,0,0,0,.318.307M10.975,3.323a.348.348,0,0,0-.352.339l-.259,8.1.259,3.872a.349.349,0,0,0,.352.337.355.355,0,0,0,.354-.339v0l.293-3.872-.293-8.1a.354.354,0,0,0-.354-.339m1.566,12.656a.383.383,0,0,0,.386-.37v0l.268-3.849-.268-8.376a.385.385,0,0,0-.77,0l-.239,8.375.239,3.85a.379.379,0,0,0,.384.366m1.58,0a.412.412,0,0,0,.414-.4h0l.251-3.811L14.534,3.6a.416.416,0,0,0-.831,0l-.221,8.163.221,3.811a.412.412,0,0,0,.418.4m2.264-4.21L16.16,3.9a.45.45,0,0,0-.9,0l-.2,7.868.2,3.785a.451.451,0,0,0,.9,0v0Zm.927,4.223a.482.482,0,0,0,.483-.466v0l.2-3.76-.2-9.361a.483.483,0,0,0-.965,0l-.183,9.355c0,.008.183,3.765.183,3.765a.481.481,0,0,0,.482.463m1.6-14.929a.513.513,0,0,0-.514.5l-.21,10.207.21,3.706a.516.516,0,0,0,1.03-.005v.005l.23-3.706-.23-10.211a.514.514,0,0,0-.516-.5M20.37,15.995,33.326,16A4.6,4.6,0,0,0,38,11.467a4.6,4.6,0,0,0-4.674-4.53,4.832,4.832,0,0,0-1.807.349A8.154,8.154,0,0,0,23.3,0a8.541,8.541,0,0,0-2.991.543c-.352.131-.445.267-.45.533V15.458a.559.559,0,0,0,.506.537" transform="translate(0 0)" fill="#fff"/></g></svg>