<svg xmlns="http://www.w3.org/2000/svg" xmlns:xlink="http://www.w3.org/1999/xlink" width="25.001" height="25" viewBox="0 0 25.001 25"><defs><clipPath id="a"><rect width="25.001" height="25" fill="#fff"/></clipPath></defs><g clip-path="url(#a)"><path d="M12.5,0A12.5,12.5,0,1,0,25,12.5,12.5,12.5,0,0,0,12.5,0m0,2.085A10.415,10.415,0,1,1,2.085,12.5,10.372,10.372,0,0,1,12.5,2.085M10.84,7.031a17.77,17.77,0,0,0-5.469.718.985.985,0,0,0-.815,1.04A1,1,0,0,0,5.63,9.863c.264,0,.444-.1.62-.1a19.086,19.086,0,0,1,4.59-.522A17.538,17.538,0,0,1,19.2,11.162c.264.088.356.2.62.2a1.153,1.153,0,0,0,1.138-1.074,1.087,1.087,0,0,0-.62-1.04,19.926,19.926,0,0,0-9.5-2.212M10.547,10.9a16.1,16.1,0,0,0-4.492.62.948.948,0,0,0-.684.976.881.881,0,0,0,.879.879,1.316,1.316,0,0,0,.522-.1,14.834,14.834,0,0,1,3.711-.425,13.92,13.92,0,0,1,7.29,1.855,1.29,1.29,0,0,0,.62.161.912.912,0,0,0,.879-.976.949.949,0,0,0-.522-.879,15.824,15.824,0,0,0-8.2-2.114m.293,3.809a17.472,17.472,0,0,0-4.331.522.763.763,0,0,0-.62.781.715.715,0,0,0,.718.718c.088,0,.347-.1.522-.1a16.3,16.3,0,0,1,3.613-.425,11.705,11.705,0,0,1,5.894,1.5,1.363,1.363,0,0,0,.552.161.827.827,0,0,0,.781-.62.814.814,0,0,0-.454-.781,13.007,13.007,0,0,0-6.675-1.758" transform="translate(0 0)" fill="#fff"/></g></svg>