<svg xmlns="http://www.w3.org/2000/svg" width="23.473" height="27.083" viewBox="0 0 23.473 27.083">
  <path id="logo-tiktok-svgrepo-com" d="M68.509,21.792a6.164,6.164,0,0,1-.533-.31,7.5,7.5,0,0,1-1.369-1.163,6.458,6.458,0,0,1-1.543-3.184h.006A3.922,3.922,0,0,1,65.007,16H60.356V33.985c0,.241,0,.48-.01.716,0,.029,0,.056,0,.088a.194.194,0,0,1,0,.04v.01a3.949,3.949,0,0,1-1.987,3.135,3.882,3.882,0,0,1-1.924.508,3.949,3.949,0,0,1,0-7.9,3.887,3.887,0,0,1,1.208.191l.006-4.736a8.64,8.64,0,0,0-6.657,1.948,9.128,9.128,0,0,0-1.992,2.456,8.51,8.51,0,0,0-1.027,3.906,9.22,9.22,0,0,0,.5,3.088v.011a9.09,9.09,0,0,0,1.263,2.3,9.452,9.452,0,0,0,2.015,1.9V41.64l.011.011a8.7,8.7,0,0,0,4.748,1.43,8.406,8.406,0,0,0,3.524-.779,8.844,8.844,0,0,0,2.862-2.151,8.94,8.94,0,0,0,1.559-2.591,9.707,9.707,0,0,0,.561-2.964V25.055c.056.034.808.531.808.531a10.757,10.757,0,0,0,2.772,1.146,15.963,15.963,0,0,0,2.845.389V22.5A6.032,6.032,0,0,1,68.509,21.792Z" transform="translate(-47.959 -16)" fill="#fff"/>
</svg>
