<svg xmlns="http://www.w3.org/2000/svg" xmlns:xlink="http://www.w3.org/1999/xlink" width="21" height="25" viewBox="0 0 21 25"><defs><clipPath id="a"><rect width="21" height="25" fill="#fff"/></clipPath></defs><g transform="translate(0)" clip-path="url(#a)"><path d="M18.259,23.634a.922.922,0,0,0-.637.309v4.3a.917.917,0,0,0,.637.315c.366,0,.555-.315.555-.951V24.6c0-.639-.188-.964-.555-.964" transform="translate(-5.598 -7.437)" fill="#fff"/><path d="M25.079,23.634c-.425,0-.638.324-.638.979v.652h1.273v-.652c0-.655-.213-.979-.635-.979" transform="translate(-7.765 -7.437)" fill="#fff"/><path d="M19.958,16.069a3.005,3.005,0,0,0-2.106-.889c-2.94-.21-7.348-.21-7.348-.21H10.5s-4.408,0-7.349.21a3.012,3.012,0,0,0-2.1.889,4.533,4.533,0,0,0-.834,2.081A31.7,31.7,0,0,0,0,21.541v1.591a31.761,31.761,0,0,0,.209,3.393A4.524,4.524,0,0,0,1.043,28.6a3.569,3.569,0,0,0,2.314.9c1.683.162,7.144.21,7.144.21s4.411-.006,7.351-.219a3,3,0,0,0,2.106-.887,4.524,4.524,0,0,0,.834-2.079A31.863,31.863,0,0,0,21,23.132V21.541a31.8,31.8,0,0,0-.209-3.392,4.533,4.533,0,0,0-.834-2.081M4.628,26.892H3.211V18.763h-1.5V17.434h4.44v1.329H4.628Zm5.021,0H8.375v-.771a2.042,2.042,0,0,1-1.455.868.786.786,0,0,1-.822-.524,3.656,3.656,0,0,1-.113-1.049v-5.57H7.26v5.187c0,.3,0,.456.009.5.033.2.132.3.3.3.257,0,.523-.2.805-.6V19.845H9.649Zm4.838-2.114a5.628,5.628,0,0,1-.129,1.419,1.007,1.007,0,0,1-1.017.792,1.733,1.733,0,0,1-1.318-.78v.683H10.75V17.434h1.275v3.088a1.728,1.728,0,0,1,1.318-.766,1.011,1.011,0,0,1,1.017.8,5.455,5.455,0,0,1,.129,1.417ZM19.223,23.6H16.677v1.249c0,.654.212.98.65.98a.547.547,0,0,0,.569-.513,8.126,8.126,0,0,0,.029-.866h1.3v.187c0,.41-.017.694-.027.822a1.835,1.835,0,0,1-.3.766,1.766,1.766,0,0,1-1.542.764,1.82,1.82,0,0,1-1.54-.724,2.733,2.733,0,0,1-.409-1.656V22.139A2.749,2.749,0,0,1,15.8,20.48a1.81,1.81,0,0,1,1.525-.723,1.769,1.769,0,0,1,1.5.723,2.784,2.784,0,0,1,.393,1.659Z" transform="translate(0 -4.711)" fill="#fff"/><path d="M8.965,9.554V5.684L10.682,0H9.238L8.264,3.752,7.252,0H5.75c.3.885.615,1.776.915,2.663a23.981,23.981,0,0,1,.874,3.022V9.554Z" transform="translate(-1.827 0)" fill="#fff"/><path d="M14.486,10.733a1.755,1.755,0,0,0,1.5-.729,2.786,2.786,0,0,0,.4-1.674v-2.5a2.794,2.794,0,0,0-.4-1.674,1.75,1.75,0,0,0-1.5-.731,1.743,1.743,0,0,0-1.5.731,2.754,2.754,0,0,0-.4,1.674v2.5a2.746,2.746,0,0,0,.4,1.674,1.748,1.748,0,0,0,1.5.729m-.615-5.156c0-.66.2-.988.615-.988s.612.33.612.988V8.572c0,.659-.2.988-.612.988s-.615-.328-.615-.988Z" transform="translate(-3.998 -1.079)" fill="#fff"/><path d="M23.3,10.671V3.551H22.018V8.995q-.427.6-.813.6c-.173,0-.276-.1-.3-.3a3.135,3.135,0,0,1-.015-.5V3.551H19.6V9.184a3.59,3.59,0,0,0,.113,1.058.794.794,0,0,0,.83.528,2.069,2.069,0,0,0,1.47-.875v.776Z" transform="translate(-6.228 -1.117)" fill="#fff"/></g></svg>