<?xml version="1.0" encoding="UTF-8"?>
<svg xmlns="http://www.w3.org/2000/svg" xmlns:bx="https://boxy-svg.com" width="148" height="148" fill="none">
  <g clip-path="url(#a)">
    <mask id="b" style="mask-type:luminance" maskUnits="userSpaceOnUse" x="0" y="0" width="148" height="148">
      <path d="M148 0H0v148h148V0Z" fill="#fff"></path>
    </mask>
    <g mask="url(#b)" fill="#FFA400">
      <path d="M 75.613 0 L 77.167 0.09 C 78.05 0.103 78.907 0.386 79.626 0.9 C 80.2 1.286 80.53 1.944 80.498 2.635 C 80.397 3.536 79.797 4.303 78.947 4.618 C 80.396 5.197 81.085 6.093 81.015 7.308 C 80.974 8.145 80.494 8.897 79.754 9.289 C 78.804 9.796 77.724 10.005 76.654 9.889 L 75.047 9.8 L 75.613 0 Z M 76.633 5.321 L 76.439 8.674 L 76.546 8.68 C 77.369 8.814 78.213 8.667 78.941 8.262 C 79.324 8.018 79.579 7.618 79.641 7.168 C 79.674 6.664 79.43 6.183 79.004 5.911 C 78.433 5.545 77.769 5.349 77.091 5.346 L 76.633 5.321 Z M 76.869 1.261 L 76.701 4.161 C 77.296 4.224 77.896 4.11 78.426 3.834 C 78.818 3.609 79.065 3.197 79.079 2.746 C 79.11 2.345 78.93 1.957 78.605 1.72 C 78.197 1.427 77.708 1.268 77.205 1.264 C 77.095 1.258 76.984 1.258 76.874 1.264 M 85.144 5.554 C 85.46 4.203 86.342 3.053 87.565 2.397 C 88.803 1.673 90.278 1.471 91.665 1.836 C 93.045 2.152 94.239 3.01 94.979 4.217 C 95.749 5.361 95.997 6.779 95.661 8.117 C 95.351 9.501 94.475 10.691 93.245 11.398 C 90.67 12.882 87.383 12.075 85.787 9.567 C 85.019 8.378 84.785 6.922 85.142 5.552 M 94.262 7.839 C 94.527 6.836 94.349 5.767 93.773 4.904 C 93.195 4.003 92.283 3.368 91.237 3.14 C 90.226 2.877 89.152 3.036 88.261 3.58 C 87.365 4.084 86.722 4.941 86.49 5.943 C 86.229 6.946 86.415 8.014 87.001 8.869 C 87.592 9.774 88.515 10.41 89.571 10.64 C 90.569 10.895 91.628 10.732 92.503 10.187 C 93.391 9.685 94.03 8.835 94.264 7.842 M 99.359 9.44 C 99.955 8.187 101.062 7.251 102.396 6.87 C 103.761 6.426 105.246 6.543 106.525 7.195 C 107.806 7.797 108.79 8.889 109.256 10.225 C 109.766 11.507 109.706 12.946 109.093 14.182 C 108.495 15.468 107.386 16.445 106.034 16.875 C 103.202 17.779 100.16 16.291 99.134 13.501 C 98.636 12.175 98.718 10.702 99.358 9.439 M 107.782 13.612 C 108.254 12.688 108.307 11.606 107.928 10.64 C 107.557 9.637 106.801 8.823 105.828 8.379 C 104.897 7.908 103.814 7.835 102.828 8.179 C 101.845 8.481 101.035 9.183 100.594 10.112 C 100.124 11.036 100.08 12.119 100.472 13.078 C 100.856 14.088 101.623 14.905 102.606 15.353 C 103.526 15.816 104.596 15.881 105.566 15.533 C 106.541 15.23 107.344 14.535 107.784 13.614 M 115.556 12.691 L 116.63 13.491 L 114.246 16.687 L 119.969 15.981 L 121.469 17.098 L 114.941 17.912 L 115.623 24.982 L 114.254 23.962 L 113.626 17.521 L 110.761 21.357 L 109.687 20.557 L 115.556 12.691 Z M 130.162 25.029 L 128.719 35.329 L 134.303 30.997 L 135.125 32.056 L 127.01 38.356 L 128.427 28.072 L 122.917 32.346 L 122.094 31.287 L 130.162 25.029 Z M 133.587 38.473 C 134.825 37.846 136.272 37.781 137.562 38.293 C 138.913 38.776 140.017 39.776 140.631 41.073 C 141.278 42.332 141.389 43.798 140.94 45.14 C 140.557 46.466 139.631 47.568 138.39 48.172 C 137.131 48.825 135.655 48.92 134.322 48.435 C 131.528 47.422 130.028 44.387 130.922 41.552 C 131.338 40.199 132.303 39.082 133.582 38.474 M 137.698 46.923 C 138.637 46.48 139.341 45.656 139.631 44.66 C 139.951 43.638 139.85 42.531 139.349 41.585 C 138.9 40.643 138.088 39.924 137.099 39.591 C 136.136 39.23 135.065 39.29 134.149 39.758 C 133.213 40.203 132.516 41.032 132.238 42.031 C 131.926 43.066 132.034 44.182 132.538 45.138 C 132.985 46.066 133.792 46.771 134.772 47.088 C 135.729 47.444 136.79 47.384 137.701 46.924 M 146.56 57.543 L 140.187 62.219 L 147.526 63.602 L 147.831 64.951 L 137.01 62.937 L 143.4 58.258 L 135.618 56.776 L 144.518 50.299 L 144.823 51.649 L 138.723 56.089 L 146.56 57.543 Z M 148 76.91 L 147.6 82.333 L 146.263 82.233 L 146.563 78.133 L 144.119 77.955 L 143.819 82.055 L 142.496 81.955 L 142.796 77.867 L 138.107 77.525 L 138.207 76.188 L 148 76.91 Z M 142.406 85.629 C 143.755 85.955 144.898 86.845 145.546 88.072 C 146.259 89.315 146.449 90.789 146.076 92.172 C 145.748 93.548 144.881 94.735 143.67 95.466 C 142.518 96.227 141.098 96.464 139.761 96.119 C 138.379 95.798 137.195 94.914 136.496 93.68 C 135.031 91.095 135.864 87.815 138.384 86.241 C 139.579 85.481 141.039 85.257 142.407 85.625 M 140.05 94.725 C 141.052 94.998 142.122 94.828 142.99 94.259 C 143.897 93.689 144.539 92.781 144.774 91.736 C 145.045 90.728 144.894 89.654 144.356 88.76 C 143.858 87.86 143.005 87.211 142.004 86.972 C 141.002 86.704 139.934 86.882 139.074 87.462 C 138.165 88.045 137.521 88.962 137.283 90.016 C 137.021 91.012 137.177 92.072 137.715 92.95 C 138.212 93.841 139.058 94.485 140.05 94.725 Z M 142.459 102.283 L 141.574 104.215 C 141.226 105.075 140.592 105.788 139.78 106.236 C 139.083 106.621 138.244 106.645 137.526 106.302 C 136.941 106.042 136.473 105.576 136.211 104.992 C 135.924 104.268 135.879 103.471 136.083 102.719 L 131.075 103.562 L 131.715 102.162 L 136.521 101.362 L 136.646 101.09 L 132.974 99.41 L 133.532 98.191 L 142.459 102.283 Z M 140.822 103.008 L 137.708 101.583 C 136.847 103.364 136.957 104.502 138.036 104.995 C 138.368 105.164 138.75 105.203 139.109 105.104 C 139.458 104.995 139.764 104.78 139.984 104.488 C 140.317 104.027 140.597 103.531 140.818 103.007 M 125.296 114.716 L 122.945 117.616 L 121.926 116.793 L 126.143 111.582 L 127.131 118.811 C 127.189 119.315 127.44 119.778 127.831 120.101 C 128.263 120.46 128.818 120.636 129.378 120.59 C 129.914 120.574 130.417 120.325 130.753 119.907 C 131.034 119.556 131.194 119.123 131.207 118.674 C 131.215 118.151 131.021 117.645 130.665 117.261 L 131.479 116.255 C 132.106 116.863 132.475 117.688 132.512 118.561 C 132.534 119.38 132.256 120.179 131.73 120.807 C 131.19 121.475 130.388 121.878 129.53 121.912 C 128.638 121.992 127.75 121.716 127.061 121.144 C 126.731 120.882 126.459 120.555 126.261 120.183 C 126.048 119.733 125.913 119.249 125.861 118.754 L 125.296 114.716 Z M 123.544 129.394 C 122.75 130.113 121.64 130.367 120.613 130.066 C 119.328 129.71 118.184 128.965 117.339 127.933 C 116.377 126.966 115.764 125.707 115.596 124.354 C 115.45 123.311 115.824 122.263 116.596 121.548 C 117.398 120.839 118.505 120.585 119.536 120.875 C 122.155 121.681 124.107 123.879 124.598 126.575 C 124.734 127.606 124.361 128.639 123.598 129.345 L 123.544 129.394 Z M 118.397 127.01 C 119.005 127.747 119.806 128.301 120.71 128.61 C 121.998 129.175 123.415 128.134 123.26 126.736 C 123.248 126.624 123.225 126.513 123.192 126.405 C 122.971 125.457 122.493 124.588 121.811 123.894 C 121.201 123.146 120.393 122.584 119.479 122.273 C 118.811 122.022 118.059 122.157 117.52 122.625 C 117.01 123.109 116.814 123.838 117.012 124.512 C 117.24 125.455 117.719 126.318 118.397 127.012 M 109.729 128.876 L 106.581 130.889 L 105.875 129.789 L 111.522 126.178 L 110.176 133.349 C 110.072 133.846 110.165 134.363 110.433 134.794 C 110.73 135.271 111.202 135.612 111.747 135.745 C 112.26 135.897 112.815 135.82 113.267 135.533 C 113.644 135.288 113.932 134.928 114.087 134.506 C 114.26 134.012 114.236 133.471 114.02 132.994 L 115.11 132.294 C 115.513 133.069 115.604 133.969 115.363 134.809 C 115.125 135.593 114.609 136.264 113.911 136.694 C 113.187 137.155 112.3 137.284 111.475 137.048 C 110.603 136.843 109.848 136.301 109.375 135.541 C 109.144 135.188 108.987 134.792 108.916 134.376 C 108.854 133.881 108.877 133.379 108.983 132.891 L 109.729 128.876 Z M 101.009 139.851 L 100.98 139.867 L 101.009 139.851 Z M 85.743 140.717 C 86.253 140.621 86.779 140.739 87.2 141.041 C 87.629 141.329 87.919 141.782 88 142.292 C 88.187 143.357 87.474 144.371 86.409 144.556 C 85.898 144.647 85.371 144.53 84.947 144.23 C 84.3 143.775 83.989 142.976 84.158 142.203 C 84.216 141.953 84.324 141.717 84.477 141.511 C 84.771 141.082 85.228 140.792 85.742 140.711 M 72.784 148 L 71.229 147.919 C 70.345 147.91 69.484 147.631 68.763 147.119 C 68.186 146.737 67.852 146.08 67.882 145.389 C 67.979 144.488 68.574 143.718 69.422 143.397 C 67.969 142.828 67.276 141.936 67.343 140.721 C 67.381 139.884 67.856 139.129 68.594 138.733 C 69.542 138.221 70.622 138.006 71.694 138.117 L 73.302 138.201 L 72.784 148 Z M 71.737 142.684 L 71.914 139.33 L 71.806 139.324 C 70.983 139.194 70.14 139.345 69.414 139.755 C 69.033 140.002 68.78 140.405 68.723 140.855 C 68.694 141.359 68.941 141.839 69.368 142.108 C 69.941 142.471 70.605 142.663 71.283 142.663 L 71.737 142.684 Z M 71.522 146.746 L 71.676 143.846 C 71.082 143.787 70.484 143.903 69.956 144.18 C 69.563 144.405 69.318 144.82 69.309 145.273 C 69.281 145.674 69.462 146.061 69.788 146.296 C 70.198 146.586 70.686 146.743 71.188 146.744 C 71.298 146.75 71.408 146.75 71.519 146.744 M 63.243 142.499 C 62.934 143.851 62.061 145.006 60.843 145.67 C 59.607 146.399 58.133 146.609 56.743 146.252 C 55.362 145.942 54.163 145.091 53.416 143.889 C 52.641 142.747 52.387 141.329 52.716 139.989 C 53.02 138.603 53.89 137.408 55.116 136.694 C 57.683 135.195 60.976 135.985 62.584 138.485 C 63.359 139.67 63.602 141.125 63.252 142.497 M 54.11 140.261 C 53.851 141.266 54.034 142.333 54.615 143.193 C 55.197 144.092 56.113 144.722 57.161 144.942 C 58.173 145.201 59.246 145.037 60.134 144.488 C 61.028 143.979 61.666 143.117 61.892 142.114 C 62.148 141.109 61.955 140.043 61.365 139.191 C 60.769 138.289 59.842 137.658 58.784 137.434 C 57.785 137.185 56.728 137.355 55.857 137.904 C 54.972 138.412 54.339 139.266 54.11 140.261 Z M 48.998 138.686 C 48.408 139.942 47.307 140.884 45.975 141.272 C 44.613 141.723 43.127 141.615 41.845 140.972 C 40.561 140.376 39.571 139.289 39.098 137.955 C 38.583 136.675 38.634 135.237 39.24 133.998 C 39.83 132.708 40.934 131.725 42.284 131.289 C 45.111 130.37 48.16 131.84 49.2 134.625 C 49.706 135.948 49.634 137.422 49 138.689 M 40.554 134.56 C 40.087 135.487 40.04 136.569 40.424 137.533 C 40.802 138.534 41.563 139.344 42.539 139.784 C 43.473 140.249 44.555 140.317 45.539 139.972 C 46.52 139.662 47.326 138.956 47.762 138.025 C 48.226 137.098 48.265 136.016 47.869 135.058 C 47.478 134.05 46.707 133.237 45.722 132.792 C 44.799 132.335 43.728 132.276 42.76 132.628 C 41.787 132.936 40.987 133.636 40.552 134.56 M 32.804 135.534 L 31.724 134.734 L 34.092 131.525 L 28.373 132.264 L 26.867 131.154 L 33.391 130.303 L 32.67 123.237 L 34.044 124.25 L 34.709 130.687 L 37.551 126.835 L 38.631 127.635 L 32.804 135.534 Z M 18.129 123.279 L 19.514 112.966 L 13.952 117.329 L 13.124 116.275 L 21.203 109.933 L 19.843 120.226 L 25.329 115.92 L 26.157 116.975 L 18.129 123.279 Z M 14.614 109.836 C 13.379 110.47 11.931 110.543 10.639 110.036 C 9.285 109.561 8.175 108.567 7.555 107.273 C 6.903 106.017 6.784 104.552 7.225 103.208 C 7.6 101.88 8.521 100.773 9.758 100.162 C 11.014 99.503 12.489 99.4 13.824 99.878 C 16.623 100.876 18.138 103.904 17.257 106.743 C 16.849 108.099 15.89 109.222 14.614 109.836 Z M 10.452 101.409 C 9.516 101.857 8.817 102.685 8.531 103.682 C 8.218 104.706 8.326 105.812 8.831 106.756 C 9.285 107.695 10.1 108.41 11.091 108.737 C 12.056 109.092 13.126 109.026 14.04 108.555 C 14.973 108.104 15.666 107.272 15.94 106.272 C 16.246 105.237 16.133 104.124 15.626 103.172 C 15.175 102.246 14.364 101.545 13.382 101.233 C 12.423 100.884 11.362 100.949 10.454 101.414 M 1.545 90.843 L 7.892 86.133 L 0.546 84.79 L 0.233 83.442 L 11.065 85.399 L 4.702 90.111 L 12.492 91.551 L 3.625 98.074 L 3.312 96.727 L 9.391 92.253 L 1.545 90.843 Z M 0 71.493 L 0.366 66.067 L 1.703 66.157 L 1.426 70.257 L 3.871 70.421 L 4.148 66.321 L 5.471 66.41 L 5.2 70.5 L 9.891 70.814 L 9.8 72.152 L 0 71.493 Z M 5.543 62.759 C 4.192 62.441 3.043 61.558 2.388 60.334 C 1.666 59.095 1.466 57.62 1.833 56.234 C 2.152 54.855 3.013 53.664 4.221 52.927 C 5.367 52.16 6.784 51.915 8.121 52.252 C 9.505 52.563 10.695 53.441 11.401 54.671 C 12.881 57.248 12.068 60.534 9.557 62.123 C 8.365 62.889 6.907 63.12 5.537 62.761 M 7.837 53.649 C 6.833 53.383 5.764 53.56 4.899 54.134 C 3.997 54.71 3.361 55.621 3.131 56.666 C 2.866 57.675 3.023 58.748 3.566 59.639 C 4.069 60.536 4.926 61.18 5.928 61.414 C 6.931 61.676 7.999 61.491 8.855 60.906 C 9.761 60.318 10.399 59.396 10.631 58.341 C 10.889 57.344 10.726 56.285 10.182 55.411 C 9.68 54.522 8.83 53.884 7.837 53.649 Z M 5.395 46.1 L 6.268 44.162 C 6.611 43.3 7.241 42.583 8.051 42.131 C 8.746 41.743 9.586 41.714 10.306 42.054 C 10.891 42.31 11.362 42.773 11.628 43.354 C 11.92 44.076 11.969 44.873 11.77 45.625 L 16.77 44.752 L 16.138 46.152 L 11.338 46.974 L 11.214 47.248 L 14.897 48.906 L 14.346 50.128 L 5.395 46.1 Z M 7.028 45.366 L 10.147 46.772 C 10.998 44.986 10.883 43.85 9.8 43.363 C 9.467 43.197 9.085 43.162 8.727 43.263 C 8.379 43.374 8.074 43.592 7.856 43.885 C 7.526 44.348 7.248 44.846 7.029 45.371 M 22.49 33.564 L 24.824 30.649 L 25.848 31.466 L 21.657 36.696 L 20.629 29.471 C 20.567 28.968 20.314 28.508 19.922 28.186 C 19.487 27.83 18.931 27.658 18.371 27.707 C 17.835 27.726 17.335 27.978 17 28.396 C 16.721 28.749 16.565 29.183 16.554 29.632 C 16.549 30.155 16.746 30.66 17.103 31.042 L 16.294 32.052 C 15.664 31.447 15.29 30.624 15.249 29.752 C 15.221 28.932 15.495 28.132 16.018 27.501 C 16.554 26.83 17.353 26.423 18.211 26.383 C 19.103 26.297 19.992 26.569 20.684 27.138 C 21.016 27.398 21.292 27.723 21.493 28.093 C 21.709 28.543 21.848 29.025 21.905 29.521 L 22.49 33.564 Z M 24.182 18.859 C 24.972 18.138 26.078 17.877 27.107 18.17 C 28.394 18.52 29.54 19.259 30.39 20.287 C 31.356 21.249 31.975 22.505 32.148 23.858 C 32.3 24.9 31.933 25.95 31.164 26.669 C 30.365 27.382 29.259 27.641 28.227 27.356 C 26.945 27.039 25.797 26.321 24.951 25.306 C 23.96 24.335 23.321 23.061 23.135 21.686 C 22.993 20.656 23.36 19.621 24.12 18.911 L 24.182 18.859 Z M 29.34 21.216 C 28.728 20.483 27.924 19.933 27.019 19.628 C 25.73 19.068 24.318 20.113 24.477 21.509 C 24.49 21.624 24.514 21.737 24.548 21.847 C 24.775 22.792 25.257 23.657 25.942 24.347 C 26.555 25.092 27.366 25.65 28.281 25.956 C 28.951 26.202 29.702 26.063 30.239 25.592 C 30.747 25.106 30.94 24.377 30.739 23.703 C 30.504 22.762 30.021 21.902 29.339 21.212 M 37.976 19.32 L 41.113 17.288 L 41.825 18.388 L 36.198 22.032 L 37.498 14.853 C 37.599 14.356 37.504 13.838 37.233 13.409 C 36.933 12.934 36.459 12.595 35.913 12.465 C 35.399 12.315 34.845 12.396 34.395 12.687 C 34.019 12.934 33.734 13.296 33.582 13.719 C 33.411 14.214 33.438 14.755 33.657 15.23 L 32.571 15.93 C 32.164 15.158 32.069 14.259 32.305 13.419 C 32.538 12.633 33.051 11.96 33.746 11.526 C 34.467 11.059 35.353 10.925 36.18 11.157 C 37.054 11.358 37.812 11.897 38.289 12.657 C 38.522 13.009 38.681 13.405 38.754 13.821 C 38.818 14.315 38.798 14.817 38.695 15.305 L 37.976 19.32 Z M 61.906 7.341 C 61.396 7.439 60.868 7.325 60.445 7.024 C 60.013 6.74 59.719 6.288 59.634 5.778 C 59.447 4.716 60.151 3.701 61.212 3.505 C 62.276 3.314 63.293 4.021 63.486 5.084 C 63.585 5.591 63.468 6.116 63.165 6.534 C 62.874 6.964 62.419 7.256 61.906 7.341 Z"></path>
    </g>
  </g>
  <defs>
    <clipPath id="a">
      <path fill="#fff" d="M0 0h148v148H0z"></path>
    </clipPath>
  </defs>
  <text style="fill: rgb(255, 164, 0); font-family: &quot;Tw Cen MT&quot;; font-size: 17px; white-space: pre; transform-box: fill-box; transform-origin: 50% 50%; text-rendering: optimizelegibility;" transform="matrix(0.804121, -0.594466, 0.594466, 0.804121, -0.144005, -0.424595)" y="15.608" x="41.986" id="object-0">6</text>
  <text style="fill: rgb(255, 164, 0); font-family: &quot;Tw Cen MT&quot;; font-size: 17px; white-space: pre; transform-box: fill-box; transform-origin: 50% 50%;" transform="matrix(-0.751556, 0.65967, -0.65967, -0.751556, 54.708542, 128.025204)" y="15.608" x="41.986">6</text>
</svg>
